# xmcd CD database file
#
# Track frame offsets:
#	180
#	10573
#	26997
#	42792
#	52334
#	69266
#	83043
#	93304
#	111121
#	127521
#
# Disc length: 1908 seconds
#
# Revision: 0
# Processed by: cddbd v1.5.1PL0 Copyright (c) Steve Scherf et al.
# Submitted via: CDex 1.51
#
DISCID=7207720a
DTITLE=Jean-Marc Versini and Anny - New Ragtime Guitar
DYEAR=1994
DGENRE=Jazz
TTITLE0=Charles Hunter - Tickled to Death
TTITLE1=Scott Joplin - Scott Joplin's New Rag
TTITLE2=Scott Joplin - Elite Syncopations
TTITLE3=Bonsai Rag
TTITLE4=Scott Joplin - The Strenuous Life
TTITLE5=Charles Hunter - Possum and Taters
TTITLE6=Ragout Gag
TTITLE7=Scott Joplin - The Entertainer
TTITLE8=Tom Turpin - The Saint Louis Rag
TTITLE9=Scott Joplin - Maple Leaf Rag
EXTD=YEAR: 1994
EXTT0=
EXTT1=
EXTT2=
EXTT3=
EXTT4=
EXTT5=
EXTT6=
EXTT7=
EXTT8=
EXTT9=
PLAYORDER=
